<?xml version="1.0" standalone="no"?>
<!DOCTYPE svg PUBLIC "-//W3C//DTD SVG 20010904//EN"
 "http://www.w3.org/TR/2001/REC-SVG-20010904/DTD/svg10.dtd">
<svg version="1.0" xmlns="http://www.w3.org/2000/svg"
 width="154.000000pt" height="210.000000pt" viewBox="0 0 154.000000 210.000000"
 preserveAspectRatio="xMidYMid meet">

    <g transform="translate(0.000000,210.000000) scale(0.100000,-0.100000)"
    fill="#9C4E97" stroke="none">
        <path d="M369 1976 c-79 -21 -180 -97 -233 -176 -18 -27 -22 -80 -6 -80 6 0
        46 19 88 43 71 38 83 42 147 41 190 -2 318 -170 371 -491 l17 -102 -28 -78
        c-57 -160 -182 -385 -397 -714 -59 -91 -108 -176 -108 -187 0 -29 40 -63 98
        -84 36 -13 50 -14 58 -5 21 22 308 570 359 684 27 62 53 109 57 105 4 -4 16
        -63 28 -132 57 -338 114 -542 166 -600 64 -71 178 -77 261 -14 45 34 83 102
        90 163 5 46 4 51 -14 51 -11 0 -37 -7 -56 -15 -20 -8 -60 -18 -90 -21 -69 -8
        -136 20 -166 70 -37 59 -94 304 -171 731 -67 365 -122 563 -188 670 -74 121
        -174 170 -283 141z"/>
    </g>
</svg>
